<svg id="svg" version="1.1" xmlns="http://www.w3.org/2000/svg" xmlns:xlink="http://www.w3.org/1999/xlink" width="400" height="400" viewBox="0, 0, 400,400"><g id="svgg"><path id="path0" d="M189.700 0.272 C 188.765 0.367,188.000 0.616,188.000 0.823 C 188.000 1.030,187.280 1.200,186.400 1.200 C 185.520 1.200,184.800 1.380,184.800 1.600 C 184.800 1.820,184.260 2.000,183.600 2.000 C 182.940 2.000,182.400 2.180,182.400 2.400 C 182.400 2.620,182.040 2.800,181.600 2.800 C 181.160 2.800,180.800 2.980,180.800 3.200 C 180.800 3.420,180.440 3.600,180.000 3.600 C 179.560 3.600,179.200 3.780,179.200 4.000 C 179.200 4.220,178.966 4.400,178.680 4.400 C 177.944 4.400,176.007 5.341,176.003 5.700 C 176.001 5.865,175.730 6.000,175.400 6.000 C 175.070 6.000,174.800 6.180,174.800 6.400 C 174.800 6.620,174.506 6.800,174.147 6.800 C 173.788 6.800,173.203 7.133,172.847 7.541 C 172.491 7.948,171.611 8.585,170.891 8.956 C 169.612 9.615,167.163 11.674,165.455 13.529 C 164.985 14.039,163.757 15.344,162.727 16.427 C 161.698 17.511,160.740 18.758,160.600 19.198 C 160.461 19.639,160.206 20.000,160.034 20.000 C 159.862 20.000,159.397 20.720,159.000 21.600 C 158.603 22.480,158.126 23.200,157.939 23.200 C 157.753 23.200,157.600 23.560,157.600 24.000 C 157.600 24.440,157.420 24.800,157.200 24.800 C 156.980 24.800,156.800 25.160,156.800 25.600 C 156.800 26.040,156.665 26.401,156.500 26.403 C 156.094 26.407,155.200 28.386,155.200 29.280 C 155.200 29.676,155.020 30.000,154.800 30.000 C 154.580 30.000,154.400 30.540,154.400 31.200 C 154.400 31.860,154.220 32.400,154.000 32.400 C 153.780 32.400,153.600 32.940,153.600 33.600 C 153.600 34.260,153.420 34.800,153.200 34.800 C 152.980 34.800,152.800 35.700,152.800 36.800 C 152.800 37.900,152.620 38.800,152.400 38.800 C 152.135 38.800,152.000 57.933,152.000 95.400 L 152.000 152.000 95.400 152.000 C 57.933 152.000,38.800 152.135,38.800 152.400 C 38.800 152.620,37.900 152.800,36.800 152.800 C 35.700 152.800,34.800 152.980,34.800 153.200 C 34.800 153.420,34.260 153.600,33.600 153.600 C 32.940 153.600,32.400 153.780,32.400 154.000 C 32.400 154.220,31.860 154.400,31.200 154.400 C 30.540 154.400,30.000 154.580,30.000 154.800 C 30.000 155.020,29.676 155.200,29.280 155.200 C 28.386 155.200,26.407 156.094,26.403 156.500 C 26.401 156.665,26.040 156.800,25.600 156.800 C 25.160 156.800,24.800 156.980,24.800 157.200 C 24.800 157.420,24.440 157.600,24.000 157.600 C 23.560 157.600,23.200 157.753,23.200 157.939 C 23.200 158.126,22.480 158.603,21.600 159.000 C 20.720 159.397,20.000 159.862,20.000 160.034 C 20.000 160.206,19.639 160.461,19.198 160.600 C 18.758 160.740,17.511 161.698,16.427 162.727 C 15.344 163.757,14.039 164.985,13.529 165.455 C 11.674 167.163,9.615 169.612,8.956 170.891 C 8.585 171.611,7.948 172.491,7.541 172.847 C 7.133 173.203,6.800 173.788,6.800 174.147 C 6.800 174.506,6.620 174.800,6.400 174.800 C 6.180 174.800,6.000 175.070,6.000 175.400 C 6.000 175.730,5.865 176.001,5.700 176.003 C 5.341 176.007,4.400 177.944,4.400 178.680 C 4.400 178.966,4.220 179.200,4.000 179.200 C 3.780 179.200,3.600 179.560,3.600 180.000 C 3.600 180.440,3.420 180.800,3.200 180.800 C 2.980 180.800,2.800 181.160,2.800 181.600 C 2.800 182.040,2.620 182.400,2.400 182.400 C 2.180 182.400,2.000 182.940,2.000 183.600 C 2.000 184.260,1.820 184.800,1.600 184.800 C 1.380 184.800,1.200 185.505,1.200 186.367 C 1.200 187.264,0.987 188.004,0.700 188.100 C -0.027 188.342,-0.027 211.658,0.700 211.900 C 0.987 211.996,1.200 212.736,1.200 213.633 C 1.200 214.495,1.380 215.200,1.600 215.200 C 1.820 215.200,2.000 215.740,2.000 216.400 C 2.000 217.060,2.180 217.600,2.400 217.600 C 2.620 217.600,2.800 217.960,2.800 218.400 C 2.800 218.840,2.980 219.200,3.200 219.200 C 3.420 219.200,3.600 219.560,3.600 220.000 C 3.600 220.440,3.780 220.800,4.000 220.800 C 4.220 220.800,4.400 221.034,4.400 221.320 C 4.400 222.056,5.341 223.993,5.700 223.997 C 5.865 223.999,6.000 224.270,6.000 224.600 C 6.000 224.930,6.180 225.200,6.400 225.200 C 6.620 225.200,6.800 225.494,6.800 225.853 C 6.800 226.212,7.133 226.797,7.541 227.153 C 7.948 227.509,8.585 228.389,8.956 229.109 C 9.615 230.388,11.674 232.837,13.529 234.545 C 14.039 235.015,15.344 236.243,16.427 237.273 C 17.511 238.302,18.758 239.260,19.198 239.400 C 19.639 239.539,20.000 239.794,20.000 239.966 C 20.000 240.138,20.720 240.603,21.600 241.000 C 22.480 241.397,23.200 241.874,23.200 242.061 C 23.200 242.247,23.560 242.400,24.000 242.400 C 24.440 242.400,24.800 242.580,24.800 242.800 C 24.800 243.020,25.160 243.200,25.600 243.200 C 26.040 243.200,26.401 243.335,26.403 243.500 C 26.407 243.906,28.386 244.800,29.280 244.800 C 29.676 244.800,30.000 244.980,30.000 245.200 C 30.000 245.420,30.540 245.600,31.200 245.600 C 31.860 245.600,32.400 245.780,32.400 246.000 C 32.400 246.220,32.940 246.400,33.600 246.400 C 34.260 246.400,34.800 246.580,34.800 246.800 C 34.800 247.020,35.700 247.200,36.800 247.200 C 37.900 247.200,38.800 247.380,38.800 247.600 C 38.800 247.865,57.933 248.000,95.400 248.000 L 152.000 248.000 152.000 304.600 C 152.000 342.067,152.135 361.200,152.400 361.200 C 152.620 361.200,152.800 362.100,152.800 363.200 C 152.800 364.300,152.980 365.200,153.200 365.200 C 153.420 365.200,153.600 365.740,153.600 366.400 C 153.600 367.060,153.780 367.600,154.000 367.600 C 154.220 367.600,154.400 368.140,154.400 368.800 C 154.400 369.460,154.580 370.000,154.800 370.000 C 155.020 370.000,155.200 370.324,155.200 370.720 C 155.200 371.614,156.094 373.593,156.500 373.597 C 156.665 373.599,156.800 373.960,156.800 374.400 C 156.800 374.840,156.980 375.200,157.200 375.200 C 157.420 375.200,157.600 375.560,157.600 376.000 C 157.600 376.440,157.753 376.800,157.939 376.800 C 158.126 376.800,158.603 377.520,159.000 378.400 C 159.397 379.280,159.862 380.000,160.034 380.000 C 160.206 380.000,160.459 380.355,160.596 380.788 C 160.802 381.437,163.060 384.082,165.674 386.734 C 167.600 388.689,170.624 391.200,171.053 391.200 C 171.334 391.200,172.014 391.650,172.564 392.200 C 173.114 392.750,173.842 393.200,174.182 393.200 C 174.522 393.200,174.800 393.380,174.800 393.600 C 174.800 393.820,175.070 394.000,175.400 394.000 C 175.730 394.000,176.001 394.135,176.003 394.300 C 176.007 394.659,177.944 395.600,178.680 395.600 C 178.966 395.600,179.200 395.780,179.200 396.000 C 179.200 396.220,179.560 396.400,180.000 396.400 C 180.440 396.400,180.800 396.580,180.800 396.800 C 180.800 397.020,181.160 397.200,181.600 397.200 C 182.040 397.200,182.400 397.380,182.400 397.600 C 182.400 397.820,182.940 398.000,183.600 398.000 C 184.260 398.000,184.800 398.180,184.800 398.400 C 184.800 398.620,185.505 398.800,186.367 398.800 C 187.264 398.800,188.004 399.013,188.100 399.300 C 188.342 400.027,211.658 400.027,211.900 399.300 C 211.996 399.013,212.736 398.800,213.633 398.800 C 214.495 398.800,215.200 398.620,215.200 398.400 C 215.200 398.180,215.740 398.000,216.400 398.000 C 217.060 398.000,217.600 397.820,217.600 397.600 C 217.600 397.380,217.960 397.200,218.400 397.200 C 218.840 397.200,219.200 397.020,219.200 396.800 C 219.200 396.580,219.560 396.400,220.000 396.400 C 220.440 396.400,220.800 396.220,220.800 396.000 C 220.800 395.780,221.034 395.600,221.320 395.600 C 222.056 395.600,223.993 394.659,223.997 394.300 C 223.999 394.135,224.270 394.000,224.600 394.000 C 224.930 394.000,225.200 393.820,225.200 393.600 C 225.200 393.380,225.478 393.200,225.818 393.200 C 226.158 393.200,226.886 392.750,227.436 392.200 C 227.986 391.650,228.666 391.200,228.947 391.200 C 229.376 391.200,232.400 388.689,234.326 386.734 C 236.940 384.082,239.198 381.437,239.404 380.788 C 239.541 380.355,239.794 380.000,239.966 380.000 C 240.138 380.000,240.603 379.280,241.000 378.400 C 241.397 377.520,241.874 376.800,242.061 376.800 C 242.247 376.800,242.400 376.440,242.400 376.000 C 242.400 375.560,242.580 375.200,242.800 375.200 C 243.020 375.200,243.200 374.840,243.200 374.400 C 243.200 373.960,243.335 373.599,243.500 373.597 C 243.906 373.593,244.800 371.614,244.800 370.720 C 244.800 370.324,244.980 370.000,245.200 370.000 C 245.420 370.000,245.600 369.460,245.600 368.800 C 245.600 368.140,245.780 367.600,246.000 367.600 C 246.220 367.600,246.400 367.060,246.400 366.400 C 246.400 365.740,246.580 365.200,246.800 365.200 C 247.020 365.200,247.200 364.300,247.200 363.200 C 247.200 362.100,247.380 361.200,247.600 361.200 C 247.865 361.200,248.000 342.067,248.000 304.600 L 248.000 248.000 304.600 248.000 C 342.067 248.000,361.200 247.865,361.200 247.600 C 361.200 247.380,362.100 247.200,363.200 247.200 C 364.300 247.200,365.200 247.020,365.200 246.800 C 365.200 246.580,365.740 246.400,366.400 246.400 C 367.060 246.400,367.600 246.220,367.600 246.000 C 367.600 245.780,368.140 245.600,368.800 245.600 C 369.460 245.600,370.000 245.420,370.000 245.200 C 370.000 244.980,370.324 244.800,370.720 244.800 C 371.614 244.800,373.593 243.906,373.597 243.500 C 373.599 243.335,373.960 243.200,374.400 243.200 C 374.840 243.200,375.200 243.020,375.200 242.800 C 375.200 242.580,375.560 242.400,376.000 242.400 C 376.440 242.400,376.800 242.247,376.800 242.061 C 376.800 241.874,377.520 241.397,378.400 241.000 C 379.280 240.603,380.000 240.138,380.000 239.966 C 380.000 239.794,380.355 239.541,380.788 239.404 C 381.437 239.198,384.082 236.940,386.734 234.326 C 388.689 232.400,391.200 229.376,391.200 228.947 C 391.200 228.666,391.650 227.986,392.200 227.436 C 392.750 226.886,393.200 226.158,393.200 225.818 C 393.200 225.478,393.380 225.200,393.600 225.200 C 393.820 225.200,394.000 224.930,394.000 224.600 C 394.000 224.270,394.135 223.999,394.300 223.997 C 394.659 223.993,395.600 222.056,395.600 221.320 C 395.600 221.034,395.780 220.800,396.000 220.800 C 396.220 220.800,396.400 220.440,396.400 220.000 C 396.400 219.560,396.580 219.200,396.800 219.200 C 397.020 219.200,397.200 218.840,397.200 218.400 C 397.200 217.960,397.380 217.600,397.600 217.600 C 397.820 217.600,398.000 217.060,398.000 216.400 C 398.000 215.740,398.180 215.200,398.400 215.200 C 398.620 215.200,398.800 214.495,398.800 213.633 C 398.800 212.736,399.013 211.996,399.300 211.900 C 399.685 211.772,399.800 209.031,399.800 200.000 C 399.800 190.969,399.685 188.228,399.300 188.100 C 399.013 188.004,398.800 187.264,398.800 186.367 C 398.800 185.505,398.620 184.800,398.400 184.800 C 398.180 184.800,398.000 184.260,398.000 183.600 C 398.000 182.940,397.820 182.400,397.600 182.400 C 397.380 182.400,397.200 182.040,397.200 181.600 C 397.200 181.160,397.020 180.800,396.800 180.800 C 396.580 180.800,396.400 180.440,396.400 180.000 C 396.400 179.560,396.220 179.200,396.000 179.200 C 395.780 179.200,395.600 178.966,395.600 178.680 C 395.600 177.944,394.659 176.007,394.300 176.003 C 394.135 176.001,394.000 175.730,394.000 175.400 C 394.000 175.070,393.820 174.800,393.600 174.800 C 393.380 174.800,393.200 174.522,393.200 174.182 C 393.200 173.842,392.750 173.114,392.200 172.564 C 391.650 172.014,391.200 171.334,391.200 171.053 C 391.200 170.624,388.689 167.600,386.734 165.674 C 384.082 163.060,381.437 160.802,380.788 160.596 C 380.355 160.459,380.000 160.206,380.000 160.034 C 380.000 159.862,379.280 159.397,378.400 159.000 C 377.520 158.603,376.800 158.126,376.800 157.939 C 376.800 157.753,376.440 157.600,376.000 157.600 C 375.560 157.600,375.200 157.420,375.200 157.200 C 375.200 156.980,374.840 156.800,374.400 156.800 C 373.960 156.800,373.599 156.665,373.597 156.500 C 373.593 156.094,371.614 155.200,370.720 155.200 C 370.324 155.200,370.000 155.020,370.000 154.800 C 370.000 154.580,369.460 154.400,368.800 154.400 C 368.140 154.400,367.600 154.220,367.600 154.000 C 367.600 153.780,367.060 153.600,366.400 153.600 C 365.740 153.600,365.200 153.420,365.200 153.200 C 365.200 152.980,364.300 152.800,363.200 152.800 C 362.100 152.800,361.200 152.620,361.200 152.400 C 361.200 152.135,342.067 152.000,304.600 152.000 L 248.000 152.000 248.000 95.400 C 248.000 57.933,247.865 38.800,247.600 38.800 C 247.380 38.800,247.200 37.900,247.200 36.800 C 247.200 35.700,247.020 34.800,246.800 34.800 C 246.580 34.800,246.400 34.260,246.400 33.600 C 246.400 32.940,246.220 32.400,246.000 32.400 C 245.780 32.400,245.600 31.860,245.600 31.200 C 245.600 30.540,245.420 30.000,245.200 30.000 C 244.980 30.000,244.800 29.676,244.800 29.280 C 244.800 28.386,243.906 26.407,243.500 26.403 C 243.335 26.401,243.200 26.040,243.200 25.600 C 243.200 25.160,243.020 24.800,242.800 24.800 C 242.580 24.800,242.400 24.440,242.400 24.000 C 242.400 23.560,242.247 23.200,242.061 23.200 C 241.874 23.200,241.397 22.480,241.000 21.600 C 240.603 20.720,240.138 20.000,239.966 20.000 C 239.794 20.000,239.539 19.639,239.400 19.198 C 239.260 18.758,238.302 17.511,237.273 16.427 C 236.243 15.344,235.015 14.039,234.545 13.529 C 232.837 11.674,230.388 9.615,229.109 8.956 C 228.389 8.585,227.509 7.948,227.153 7.541 C 226.797 7.133,226.212 6.800,225.853 6.800 C 225.494 6.800,225.200 6.620,225.200 6.400 C 225.200 6.180,224.930 6.000,224.600 6.000 C 224.270 6.000,223.999 5.865,223.997 5.700 C 223.993 5.341,222.056 4.400,221.320 4.400 C 221.034 4.400,220.800 4.220,220.800 4.000 C 220.800 3.780,220.440 3.600,220.000 3.600 C 219.560 3.600,219.200 3.420,219.200 3.200 C 219.200 2.980,218.840 2.800,218.400 2.800 C 217.960 2.800,217.600 2.620,217.600 2.400 C 217.600 2.180,217.060 2.000,216.400 2.000 C 215.740 2.000,215.200 1.820,215.200 1.600 C 215.200 1.380,214.495 1.200,213.633 1.200 C 212.741 1.200,211.995 0.986,211.901 0.704 C 211.735 0.205,193.752 -0.144,189.700 0.272 " stroke="none" fill="#24a44c" fill-rule="evenodd"></path><path id="path1" d="" stroke="none" fill="#28a44c" fill-rule="evenodd"></path><path id="path2" d="" stroke="none" fill="#28a44c" fill-rule="evenodd"></path><path id="path3" d="" stroke="none" fill="#28a44c" fill-rule="evenodd"></path><path id="path4" d="" stroke="none" fill="#28a44c" fill-rule="evenodd"></path></g></svg>